<mxfile host="app.diagrams.net" modified="2023-07-29T03:03:32.750Z" agent="Mozilla/5.0 (Windows NT 10.0; Win64; x64) AppleWebKit/537.36 (KHTML, like Gecko) Chrome/115.0.0.0 Safari/537.36" etag="k8cTrgJNKajK5ZBb758Q" version="21.6.5" type="github">
  <diagram name="第 1 页" id="fus58SpjD1Id3s4duLg9">
    <mxGraphModel dx="880" dy="446" grid="1" gridSize="10" guides="1" tooltips="1" connect="1" arrows="1" fold="1" page="1" pageScale="1" pageWidth="827" pageHeight="1169" math="0" shadow="0">
      <root>
        <mxCell id="0" />
        <mxCell id="1" parent="0" />
        <mxCell id="A_NDuBrJzdsje9nsJZa2-1" value="" style="rounded=0;whiteSpace=wrap;html=1;fontSize=18;fillColor=#f5f5f5;strokeColor=#666666;fontColor=#333333;strokeWidth=2;" vertex="1" parent="1">
          <mxGeometry x="70" y="160" width="390" height="230" as="geometry" />
        </mxCell>
        <mxCell id="A_NDuBrJzdsje9nsJZa2-2" value="CPU" style="rounded=1;whiteSpace=wrap;html=1;fontSize=18;fillColor=#ffe6cc;strokeColor=#d79b00;" vertex="1" parent="1">
          <mxGeometry x="80" y="240" width="120" height="60" as="geometry" />
        </mxCell>
        <mxCell id="A_NDuBrJzdsje9nsJZa2-4" value="物理地址" style="rounded=0;whiteSpace=wrap;html=1;fontSize=18;fillColor=#dae8fc;strokeColor=#6c8ebf;strokeWidth=2;" vertex="1" parent="1">
          <mxGeometry x="600" y="80" width="150" height="390" as="geometry" />
        </mxCell>
        <mxCell id="A_NDuBrJzdsje9nsJZa2-5" value="MMU" style="rounded=1;whiteSpace=wrap;html=1;fontSize=18;fillColor=#fff2cc;strokeColor=#d6b656;" vertex="1" parent="1">
          <mxGeometry x="320" y="240" width="120" height="60" as="geometry" />
        </mxCell>
        <mxCell id="A_NDuBrJzdsje9nsJZa2-6" value="" style="endArrow=classic;html=1;rounded=0;exitX=1;exitY=0.5;exitDx=0;exitDy=0;entryX=0;entryY=0.485;entryDx=0;entryDy=0;fontSize=18;entryPerimeter=0;strokeWidth=2;" edge="1" parent="1" source="A_NDuBrJzdsje9nsJZa2-5" target="A_NDuBrJzdsje9nsJZa2-4">
          <mxGeometry width="50" height="50" relative="1" as="geometry">
            <mxPoint x="390" y="260" as="sourcePoint" />
            <mxPoint x="440" y="210" as="targetPoint" />
          </mxGeometry>
        </mxCell>
        <mxCell id="A_NDuBrJzdsje9nsJZa2-10" value="物理地址" style="edgeLabel;html=1;align=center;verticalAlign=middle;resizable=0;points=[];fontSize=18;" vertex="1" connectable="0" parent="A_NDuBrJzdsje9nsJZa2-6">
          <mxGeometry x="0.2313" y="1" relative="1" as="geometry">
            <mxPoint x="-9" y="2" as="offset" />
          </mxGeometry>
        </mxCell>
        <mxCell id="A_NDuBrJzdsje9nsJZa2-7" value="" style="endArrow=classic;html=1;rounded=0;exitX=1;exitY=0.5;exitDx=0;exitDy=0;fontSize=18;strokeWidth=2;" edge="1" parent="1" source="A_NDuBrJzdsje9nsJZa2-2" target="A_NDuBrJzdsje9nsJZa2-5">
          <mxGeometry width="50" height="50" relative="1" as="geometry">
            <mxPoint x="390" y="260" as="sourcePoint" />
            <mxPoint x="440" y="210" as="targetPoint" />
          </mxGeometry>
        </mxCell>
        <mxCell id="A_NDuBrJzdsje9nsJZa2-9" value="虚拟地址" style="edgeLabel;html=1;align=center;verticalAlign=middle;resizable=0;points=[];fontSize=18;" vertex="1" connectable="0" parent="A_NDuBrJzdsje9nsJZa2-7">
          <mxGeometry x="-0.1833" y="-1" relative="1" as="geometry">
            <mxPoint y="-1" as="offset" />
          </mxGeometry>
        </mxCell>
        <mxCell id="A_NDuBrJzdsje9nsJZa2-8" value="CPU芯片" style="text;html=1;strokeColor=none;fillColor=none;align=center;verticalAlign=middle;whiteSpace=wrap;rounded=0;fontSize=18;" vertex="1" parent="1">
          <mxGeometry x="70" y="160" width="90" height="30" as="geometry" />
        </mxCell>
      </root>
    </mxGraphModel>
  </diagram>
</mxfile>
